<svg width="227" height="183" viewBox="0 0 227 183" fill="none" xmlns="http://www.w3.org/2000/svg">
<g clip-path="url(#clip0_125_6762)">
<path d="M94.4221 158.982L96.9014 151.424C93.9183 148.351 90.1789 146.005 86.0078 144.592C90.083 150.912 86.1341 159.156 87.7797 166.375C88.3113 168.623 89.3766 170.73 90.8965 172.541C92.4164 174.351 94.3519 175.818 96.5598 176.832L100.322 181.196C102.295 177.97 103.496 174.383 103.845 170.68C104.193 166.978 103.68 163.249 102.341 159.75C101.569 157.794 100.537 155.937 99.2688 154.222C97.0331 156.683 94.4221 158.982 94.4221 158.982Z" fill="#F2F2F2"/>
<path d="M80.7934 159.948L79.4115 152.148C75.2772 150.643 70.813 150.105 66.4062 150.581C73.0646 154.536 73.4581 163.563 78.3705 169.338C79.9173 171.128 81.8747 172.569 84.0975 173.555C86.3203 174.541 88.7516 175.046 91.2111 175.032L96.6576 177.367C96.8861 173.657 96.2525 169.944 94.8005 166.484C93.3485 163.025 91.1126 159.902 88.2468 157.329C86.6239 155.901 84.8152 154.669 82.8636 153.664C82.0347 156.8 80.7934 159.948 80.7934 159.948Z" fill="#F2F2F2"/>
<path d="M161.941 179.256L158.121 179.256L156.305 165.467L161.941 165.468L161.941 179.256Z" fill="#FFB6B6"/>
<path d="M162.908 182.722L150.594 182.721V182.575C150.594 181.385 151.099 180.244 151.998 179.403C152.896 178.562 154.116 178.089 155.387 178.089H155.387L157.636 176.492L161.833 178.089L162.908 178.089L162.908 182.722Z" fill="#1F1F1F"/>
<path d="M223.626 166.217L221.022 168.832L209.008 160.675L212.851 156.816L223.626 166.217Z" fill="#FFB6B6"/>
<path d="M227.004 167.913L218.608 176.345L218.494 176.245C217.564 175.434 217.016 174.31 216.972 173.121C216.927 171.932 217.389 170.775 218.255 169.904L218.541 167.275L222.651 165.49L223.384 164.754L227.004 167.913Z" fill="#1F1F1F"/>
<path d="M217.977 158.468L213.94 166.37L189.153 151.008L185.547 146.409L173.724 131.329L168.918 138.468L165.573 145.93C164.483 146.596 163.565 147.479 162.885 148.518C162.204 149.556 161.778 150.722 161.638 151.933L161.485 153.255L163.598 171.037L155.566 173.346L150.953 149.457L152.461 144.281L154.014 137.014L161.83 114.053H182.747L194.744 137.957L195.621 142.827L199.022 146.482L217.977 158.468Z" fill="#1F1F1F"/>
<path d="M174.507 76.4851L178.028 78.9949L182.274 80.2164C182.274 80.2164 184.03 103.332 185.611 104.812C187.193 106.293 185.767 106.333 186.084 108.256C186.402 110.18 187.175 114.123 187.175 114.123C176.498 119.413 167.293 119.555 159.899 113.364C159.804 112.981 159.852 112.58 160.035 112.226C160.218 111.872 160.524 111.587 160.904 111.419C162.28 110.735 159.635 107.545 160.76 107.012C161.884 106.478 160.303 101.851 160.303 101.851L161.34 92.1967L160.52 90.6535L162.521 81.2105L165.992 80.0238L167.379 76.8963L174.507 76.4851Z" fill="#B9B9B9"/>
<path d="M176.713 117.569C176.697 117.151 176.779 116.736 176.954 116.351C177.128 115.967 177.39 115.623 177.722 115.343C178.054 115.064 178.447 114.856 178.874 114.734C179.301 114.613 179.751 114.58 180.193 114.639L185.155 105.61L187.92 110.208L182.784 118.077C182.629 118.765 182.21 119.376 181.606 119.795C181.002 120.213 180.255 120.41 179.507 120.347C178.759 120.284 178.061 119.967 177.546 119.455C177.031 118.943 176.735 118.272 176.713 117.569Z" fill="#FFB6B6"/>
<path d="M185.074 115.36L195.718 99.9183L195.682 99.8473C195.642 99.7659 193.232 94.8932 190.897 90.4301C190.537 89.7428 190.179 89.0652 189.832 88.4163C189.682 88.1363 189.535 87.8621 189.389 87.5938C188.408 85.7836 187.551 84.2875 187.04 83.5768C185.908 81.97 184.224 80.7737 182.266 80.1867L182.216 80.1749L182.169 80.1932C181.212 80.5715 180.42 81.244 179.926 82.0998C179.431 82.9557 179.263 83.9437 179.449 84.9011C180.372 89.5189 182.429 93.8726 185.458 97.6187L187.183 99.7476L181.187 111.951L185.074 115.36Z" fill="#B9B9B9"/>
<path d="M148.474 56.1695C148.767 56.4845 148.983 56.8558 149.106 57.2573C149.229 57.6588 149.257 58.0807 149.187 58.4932C149.117 58.9058 148.952 59.299 148.702 59.6452C148.452 59.9913 148.125 60.282 147.742 60.4968L149.961 70.4357L144.72 68.4934L143.416 59.353C143.073 58.7272 142.988 58.0054 143.175 57.3245C143.363 56.6435 143.811 56.0506 144.435 55.6582C145.058 55.2658 145.814 55.1011 146.558 55.1954C147.303 55.2896 147.984 55.6362 148.474 56.1695Z" fill="#FFB6B6"/>
<path d="M143.469 62.8113L145.588 81.0808L145.663 81.1153C145.725 81.1438 148.41 82.3766 151.706 83.8447C152.262 84.0924 152.182 85.1653 152.763 85.4217C153.164 85.5983 154.221 84.9574 154.625 85.1345C158.228 86.7115 161.87 88.2449 163.322 88.6604C165.282 89.2417 167.395 89.178 169.311 88.4799L169.358 88.4601L169.382 88.4182C169.871 87.5598 170.034 86.5708 169.842 85.6145C169.651 84.6581 169.117 83.7913 168.328 83.1571C164.505 80.114 159.978 77.9444 155.105 76.8196L152.333 76.1829L148.782 63.1685L143.469 62.8113Z" fill="#B9B9B9"/>
<path d="M170.754 75.4499C174.6 75.4499 177.719 72.531 177.719 68.9303C177.719 65.3297 174.6 62.4107 170.754 62.4107C166.907 62.4107 163.789 65.3297 163.789 68.9303C163.789 72.531 166.907 75.4499 170.754 75.4499Z" fill="#FFB6B6"/>
<path d="M163.839 64.5616C164.412 63.0018 167.263 61.9199 171.885 61.7695C176.508 61.6191 177.68 66.7181 177.68 66.7181C180.766 69.0613 174.385 75.3346 174.076 75.1086L174.215 73.93C174.445 71.9777 175.421 70.4545 174.179 68.4199L172.987 68.4327C171.447 68.71 169.906 68.9872 168.366 69.2645L170.19 67.7615L170.138 67.6871C169.362 68.0653 168.518 68.3052 167.649 68.3946C166.669 68.4485 165.597 68.0833 165.128 67.2762C165.003 67.0543 164.926 66.8112 164.903 66.5611C163.581 67.0554 162.977 68.5806 162.977 68.5806C162.977 68.5806 163.266 66.1214 163.839 64.5616Z" fill="#1F1F1F"/>
<path d="M28.0625 64.9528C27.968 64.8406 27.8663 64.734 27.7578 64.6334C27.7843 64.5993 27.8108 64.5621 27.8373 64.528L28.0625 64.9528Z" fill="#1F1F1F"/>
<path d="M29.4162 91.1744C28.2769 93.0686 26.0016 94.1258 23.7462 94.6435C21.2129 95.2646 18.5452 95.2163 16.0394 94.504C15.7215 94.4079 15.4035 94.2963 15.0955 94.1723C15.2436 93.8041 15.361 93.4258 15.4466 93.0407C15.5619 92.5196 15.6196 91.9887 15.6188 91.4565C15.3679 91.9149 15.0428 92.3342 14.6551 92.6997C14.356 92.9938 14.0163 93.2492 13.6449 93.4592C12.4932 92.8049 11.4959 91.9378 10.7139 90.9109C10.7636 90.7961 10.8133 90.6814 10.8596 90.5667C11.1001 89.9676 11.2906 89.3519 11.4293 88.7252C11.6174 87.8778 11.7118 87.0145 11.7108 86.1489C11.3024 86.8947 10.7728 87.5766 10.1409 88.1702C9.95148 88.36 9.75022 88.5391 9.53818 88.7066C9.20982 87.7731 9.08289 86.7879 9.16475 85.8081C9.24662 84.8283 9.53566 83.8735 10.0151 82.9991C11.3266 80.7297 13.8701 79.3812 16.1355 77.9148C18.4041 76.4484 20.6728 74.4642 20.8649 71.888C20.994 70.1487 20.1329 68.4064 20.4774 66.6951C20.6222 65.9734 20.9759 65.3028 21.4998 64.7563C22.0237 64.2098 22.6978 63.8084 23.4486 63.5958C24.1994 63.3831 24.9982 63.3674 25.7578 63.5504C26.5175 63.7334 27.209 64.108 27.7569 64.6334C26.4719 66.3386 25.1935 68.1026 24.6736 70.1301C24.1437 72.1949 24.5775 74.6161 26.3163 75.9833C26.9124 76.4546 27.6443 76.7894 28.1047 77.3784C28.7174 78.1597 28.7207 79.2013 28.8201 80.1624C29.0188 82.0318 29.6712 83.83 30.0223 85.6808C30.3767 87.5285 30.3965 89.5344 29.4162 91.1744Z" fill="#1F1F1F"/>
<path d="M6.0625 168.055L9.08523 170.241L19.5317 160.368L15.0704 157.141L6.0625 168.055Z" fill="#A0616A"/>
<path d="M6.18925 165.919L11.1877 169.108L9.60588 171.024L11.7243 177.247C11.829 177.554 11.826 177.885 11.7157 178.19C11.6055 178.496 11.3938 178.76 11.1115 178.945C10.8292 179.13 10.4911 179.226 10.1466 179.218C9.80212 179.211 9.46925 179.1 9.19659 178.903L3.50811 174.789L4.09227 172.184L2.14478 173.802L0 172.251L6.18925 165.919Z" fill="#1F1F1F"/>
<path d="M21.3984 70.4607C21.398 71.5662 21.6875 72.6549 22.2414 73.6312C22.7954 74.6075 23.597 75.4416 24.5757 76.0603C25.5544 76.679 26.6804 77.0633 27.8549 77.1795C29.0293 77.2957 30.2163 77.1402 31.3116 76.7268C32.4068 76.3133 33.3769 75.6545 34.1367 74.8082C34.8965 73.9618 35.4227 72.9539 35.6692 71.8727C35.9157 70.7915 35.8749 69.6703 35.5503 68.6073C35.2258 67.5444 34.6275 66.5723 33.8079 65.7763L33.7733 65.744C33.7156 65.6872 33.6579 65.6305 33.5972 65.5764L33.5961 65.5762L33.5952 65.5757L33.5946 65.5748L33.5944 65.5737C33.5193 65.5089 33.4443 65.4441 33.3664 65.3819C32.0966 64.3392 30.3119 63.2073 28.4908 63.2073C24.5054 63.2073 21.3984 66.73 21.3984 70.4607Z" fill="#1F1F1F"/>
<path d="M62.5209 66.9924C62.5554 67.3527 62.5051 67.7156 62.3736 68.0556C62.2421 68.3957 62.0326 68.7046 61.7597 68.9607C61.4869 69.2167 61.1573 69.4137 60.7944 69.5376C60.4314 69.6616 60.0439 69.7095 59.659 69.6781L41.7932 84.7779L38.7188 80.2325L57.2469 66.8192C57.3462 66.2174 57.6778 65.6706 58.179 65.2824C58.6802 64.8943 59.316 64.6917 59.9661 64.713C60.6162 64.7344 61.2353 64.9782 61.7062 65.3983C62.177 65.8184 62.4669 66.3856 62.5209 66.9924Z" fill="#A0616A"/>
<path d="M34.1566 89.3357C34.1566 89.3357 34.8214 90.4849 37.092 88.7104C38.9098 87.2897 47.6189 81.1221 49.4951 78.5948C49.9235 78.7537 50.3962 78.7747 50.8388 78.6544C51.2813 78.5341 51.6686 78.2794 51.9394 77.9304L46.7987 73.716C45.2606 73.8818 45.2936 74.849 45.4538 75.3981L41.576 77.0427L31.5625 83.0331L33.6604 88.5129L34.1566 89.3357Z" fill="#1DBF73"/>
<path d="M24.458 99.9238L24.0836 101.593L23.7656 107.75L37.7642 108.47L37.3295 99.0003L35.9727 96.9135L24.458 99.9238Z" fill="#A0616A"/>
<path d="M30.3859 77.6866C33.7272 77.6866 36.4358 75.151 36.4358 72.0233C36.4358 68.8956 33.7272 66.3601 30.3859 66.3601C27.0446 66.3601 24.3359 68.8956 24.3359 72.0233C24.3359 75.151 27.0446 77.6866 30.3859 77.6866Z" fill="#A0616A"/>
<path d="M19.6466 92.9119L19.6094 88.2044C19.6085 86.5106 20.2209 84.8665 21.3465 83.5403C22.4721 82.2141 24.0447 81.2841 25.8075 80.902L25.8303 80.897L27.0266 79.3881L31.887 79.8432L32.7778 81.5475L36.2997 83.5106L37.6557 87.591C38.2439 87.9579 38.7451 88.4342 39.1283 88.9901C39.5115 89.5461 39.7685 90.1699 39.8833 90.8227C40.3436 93.5754 38.2847 96.3296 38.0398 96.6454L37.4088 99.9721L23.6815 102.239L23.5701 102.253L19.6466 92.9119Z" fill="#1DBF73"/>
<path d="M37.795 71.0137C37.0893 71.4321 36.3571 71.81 35.6025 72.1453C34.8366 72.4897 34.0355 72.7608 33.2113 72.9544C32.9755 72.4701 32.687 72.0099 32.3502 71.581C32.4369 72.0892 32.4391 72.6068 32.3568 73.1156C30.9908 73.3219 29.5917 73.2145 28.2799 72.8025L27.1406 71.0137L27.0545 73.0102C26.1106 73.1715 25.17 73.3234 24.2261 73.4815C24.1698 73.4877 24.1135 73.5001 24.0605 73.5094C23.4743 71.0354 24.3056 68.3103 26.1537 66.661C27.0712 65.8507 28.2158 65.301 29.4541 65.076C30.6925 64.851 31.9736 64.9598 33.1484 65.3899C33.2974 65.4457 33.4498 65.5077 33.5955 65.5728L33.5957 65.574L33.5964 65.5751L33.5975 65.5757L33.5988 65.5759C33.6849 65.6162 33.7578 65.7123 33.8538 65.703C37.9871 65.2721 38.1196 68.2731 37.795 71.0137Z" fill="#1F1F1F"/>
<path d="M27.7266 160.752L30.7539 162.933L41.1793 153.04L36.7112 149.822L27.7266 160.752Z" fill="#A0616A"/>
<path d="M28.1287 158.814L33.134 161.993L31.5563 163.913L33.6882 170.131C33.7935 170.438 33.7912 170.769 33.6816 171.075C33.572 171.38 33.3609 171.645 33.079 171.831C32.7971 172.016 32.4592 172.113 32.1147 172.106C31.7702 172.099 31.4371 171.989 31.164 171.792L25.4667 167.688L26.0452 165.083L24.1012 166.705L21.9531 165.158L28.1287 158.814Z" fill="#1F1F1F"/>
<path d="M17.9054 148.678L17.9052 148.641L19.34 146.327L17.8749 143.314L17.831 135.574L18.0685 134.412C18.3879 132.849 18.295 131.237 17.7977 129.715L17.771 125.004C17.7195 123.823 19.6728 122.785 19.2173 121.801C14.9118 112.501 23.6138 105.406 23.6726 105.349L23.8505 105.176L24.8153 105.86L25.7336 105.861L38.1263 107.975L38.2158 108.131C38.7032 108.987 39.6439 111.936 39.6997 113.271C40.3173 113.941 47.3526 121.561 47.978 122.091C52.2041 125.67 54.6238 131.595 55.6899 134.808C55.9547 135.602 56.0081 136.444 55.8454 137.262C55.6827 138.08 55.3089 138.848 54.7565 139.5L38.7575 155.904L34.452 152.183L43.1089 137.417L42.4847 135.919C41.3646 135.725 40.3509 135.174 39.6166 134.359L37.8637 132.411C37.3783 131.873 37.0699 131.215 36.9758 130.517L35.9127 130.397L32.1048 126.655L29.4629 149.05L28.7447 150.819L16.2365 164.584L10.9375 161.484L17.9054 148.678Z" fill="#1F1F1F"/>
<path d="M15.9909 52.5144C15.7506 52.7976 15.5795 53.1267 15.4898 53.4784C15.4 53.8302 15.3937 54.1961 15.4714 54.5504C15.5491 54.9047 15.7088 55.2387 15.9393 55.529C16.1697 55.8192 16.4654 56.0586 16.8055 56.2304L12.8281 67.2525L16.0758 78.9332L21.3128 76.717L18.0812 67.9066L20.4989 55.0824C20.7692 54.5286 20.8131 53.9012 20.6223 53.3191C20.4314 52.737 20.0191 52.2406 19.4634 51.9241C18.9077 51.6075 18.2473 51.4928 17.6073 51.6016C16.9673 51.7104 16.3922 52.0352 15.9909 52.5144Z" fill="#A0616A"/>
<path d="M20.7843 88.5573C20.7843 88.5573 19.5542 89.1756 18.6988 86.525C18.014 84.403 13.3534 72.8816 13.2694 69.805C12.8182 69.7174 12.4109 69.4917 12.1118 69.1636C11.8127 68.8354 11.6387 68.4235 11.6172 67.9926L18.3862 67.1157C19.574 68.0454 18.9786 68.8365 18.5225 69.2129L20.8279 72.8685L25.6467 82.7372L21.6818 88.1252L20.7843 88.5573Z" fill="#1DBF73"/>
<path d="M24.2188 73.481C24.9139 71.5187 26.1603 69.7676 27.8273 68.4115C29.4944 67.0555 31.5205 66.1443 33.6933 65.7737C33.7019 65.771 33.7308 65.7602 33.7683 65.744C33.7914 65.7305 33.8203 65.717 33.8491 65.7035C33.7625 65.6575 33.6788 65.617 33.5922 65.5765L33.5911 65.5763L33.5902 65.5757L33.5896 65.5748L33.5894 65.5738C33.5143 65.5089 33.4393 65.4441 33.3614 65.382L33.142 65.3901C33.142 65.3901 25.4337 64.2474 24.2188 73.481Z" fill="#FD6584"/>
<path d="M123.685 136.589C124.526 135.405 124.028 133.711 122.573 132.805C121.117 131.898 119.255 132.123 118.414 133.306C117.573 134.49 118.071 136.185 119.526 137.091C120.982 137.997 122.844 137.773 123.685 136.589Z" fill="#F2F2F2"/>
<path d="M106.607 92.4096C107.448 91.226 106.95 89.5316 105.495 88.6251C104.039 87.7186 102.177 87.9433 101.336 89.127C100.495 90.3107 100.992 92.0051 102.448 92.9116C103.904 93.8181 105.765 93.5933 106.607 92.4096Z" fill="#F2F2F2"/>
<path d="M178.021 160.423C178.862 159.239 178.364 157.545 176.909 156.638C175.453 155.732 173.591 155.956 172.75 157.14C171.909 158.324 172.406 160.018 173.862 160.925C175.318 161.831 177.18 161.606 178.021 160.423Z" fill="#F2F2F2"/>
<path d="M33.638 18.2928C34.4792 17.1091 33.9813 15.4147 32.5258 14.5082C31.0702 13.6018 29.2083 13.8265 28.367 15.0102C27.5257 16.1939 28.0237 17.8883 29.4792 18.7947C30.9348 19.7012 32.7967 19.4765 33.638 18.2928Z" fill="#F2F2F2"/>
<path d="M101.021 4.34138C101.862 3.1577 101.364 1.4633 99.9086 0.556823C98.4531 -0.349652 96.5911 -0.124937 95.7498 1.05874C94.9086 2.24242 95.4065 3.93684 96.862 4.84332C98.3176 5.74979 100.18 5.52506 101.021 4.34138Z" fill="#F2F2F2"/>
<path d="M69.1302 121.392C69.9714 120.208 69.4735 118.514 68.018 117.608C66.5624 116.701 64.7005 116.926 63.8592 118.109C63.0179 119.293 63.5159 120.988 64.9714 121.894C66.4269 122.8 68.2889 122.576 69.1302 121.392Z" fill="#E6E6E6"/>
<path d="M208.121 183H6.20457C6.1067 183 6.01294 182.963 5.94384 182.898C5.87474 182.833 5.83594 182.746 5.83594 182.654C5.83594 182.562 5.87474 182.474 5.94384 182.41C6.01294 182.345 6.1067 182.308 6.20457 182.308H208.121C208.219 182.308 208.313 182.344 208.383 182.409C208.452 182.474 208.491 182.562 208.491 182.654C208.491 182.746 208.452 182.834 208.383 182.899C208.313 182.964 208.219 183 208.121 183Z" fill="#CCCCCC"/>
<path d="M43.7867 68.0602C42.0882 68.0555 40.4511 67.4652 39.1883 66.4018C37.9256 65.3385 37.1257 63.8769 36.9417 62.2963L32.9998 28.0262C32.8061 26.3247 33.3414 24.6207 34.4882 23.2882C35.635 21.9556 37.2996 21.1033 39.1169 20.9182L156.161 9.1212C157.979 8.93982 159.8 9.44082 161.223 10.5143C162.647 11.5877 163.557 13.146 163.755 14.8471L167.697 49.1171C167.891 50.8187 167.355 52.5227 166.209 53.8553C165.062 55.1879 163.397 56.0403 161.58 56.2254L44.5352 68.0224C44.2866 68.0475 44.0367 68.0601 43.7867 68.0602Z" fill="#E6E6E6"/>
<path d="M154.87 10.7121C154.65 10.7122 154.431 10.7233 154.212 10.7454L41.3875 22.1171C40.5985 22.1966 39.8341 22.4208 39.1378 22.7768C38.4414 23.1329 37.8268 23.6139 37.329 24.1923C36.8313 24.7707 36.4601 25.4352 36.2367 26.1479C36.0132 26.8606 35.942 27.6075 36.0269 28.346L38.02 45.6732C38.3422 48.4744 39.2506 51.1888 40.6934 53.6613C42.1362 56.1338 44.0852 58.3161 46.429 60.0836C48.7728 61.8511 51.4655 63.1691 54.3535 63.9624C57.2414 64.7557 60.268 65.0088 63.2605 64.7071L142.595 56.7109C145.578 56.4102 148.469 55.5624 151.102 54.2159C153.736 52.8694 156.06 51.0506 157.942 48.8633C159.825 46.6759 161.229 44.163 162.073 41.4678C162.918 38.7727 163.188 35.9482 162.867 33.1555L160.866 15.7632C160.707 14.3779 160.007 13.0964 158.9 12.1643C157.794 11.2322 156.359 10.7151 154.87 10.7121Z" fill="white"/>
<path d="M131.112 28.7449L68.053 35.1007C67.8727 35.1191 67.6902 35.1041 67.5162 35.0564C67.3421 35.0088 67.1797 34.9295 67.0384 34.823C66.8971 34.7166 66.7796 34.5852 66.6926 34.4362C66.6056 34.2872 66.5508 34.1237 66.5314 33.9549C66.512 33.786 66.5283 33.6153 66.5794 33.4524C66.6305 33.2895 66.7155 33.1377 66.8293 33.0055C66.9432 32.8734 67.0838 32.7635 67.2431 32.6823C67.4023 32.6011 67.5771 32.55 67.7575 32.532L130.817 26.1762C130.997 26.1578 131.179 26.1729 131.353 26.2205C131.528 26.2682 131.69 26.3475 131.831 26.4539C131.973 26.5603 132.09 26.6918 132.177 26.8407C132.264 26.9897 132.319 27.1533 132.338 27.3221C132.358 27.4909 132.341 27.6616 132.29 27.8245C132.239 27.9874 132.154 28.1393 132.04 28.2714C131.926 28.4036 131.786 28.5134 131.627 28.5946C131.467 28.6759 131.292 28.7269 131.112 28.7449Z" fill="#1DBF73"/>
<path d="M132.017 36.6283L68.9574 42.9841C68.5935 43.0207 68.2289 42.9206 67.9439 42.7057C67.6589 42.4908 67.4768 42.1787 67.4376 41.838C67.3984 41.4974 67.5054 41.1562 67.735 40.8894C67.9646 40.6226 68.298 40.4521 68.6619 40.4154L131.721 34.0596C132.085 34.0229 132.449 34.123 132.734 34.338C133.02 34.5529 133.202 34.865 133.241 35.2056C133.28 35.5463 133.173 35.8875 132.943 36.1543C132.714 36.4211 132.38 36.5916 132.017 36.6283Z" fill="#1DBF73"/>
<path d="M77.2122 50.1266L69.8636 50.8673C69.4997 50.904 69.1352 50.8038 68.8502 50.5889C68.5652 50.374 68.3831 50.0619 68.3439 49.7212C68.3047 49.3806 68.4117 49.0394 68.6413 48.7726C68.8709 48.5058 69.2043 48.3353 69.5682 48.2986L76.9168 47.5579C77.0971 47.5395 77.2795 47.5546 77.4536 47.6022C77.6277 47.6499 77.79 47.7292 77.9313 47.8356C78.0727 47.942 78.1902 48.0735 78.2772 48.2224C78.3642 48.3714 78.419 48.535 78.4384 48.7038C78.4578 48.8726 78.4415 49.0433 78.3903 49.2062C78.3392 49.3691 78.2543 49.521 78.1404 49.6531C78.0265 49.7853 77.8859 49.8951 77.7267 49.9763C77.5674 50.0576 77.3926 50.1086 77.2122 50.1266Z" fill="#1DBF73"/>
<path d="M41.3043 29.4722C42.6762 29.4722 43.7883 28.4312 43.7883 27.147C43.7883 25.8628 42.6762 24.8218 41.3043 24.8218C39.9324 24.8218 38.8203 25.8628 38.8203 27.147C38.8203 28.4312 39.9324 29.4722 41.3043 29.4722Z" fill="#B9B9B9"/>
<path d="M152.461 17.8461C153.832 17.8461 154.945 16.805 154.945 15.5209C154.945 14.2367 153.832 13.1956 152.461 13.1956C151.089 13.1956 149.977 14.2367 149.977 15.5209C149.977 16.805 151.089 17.8461 152.461 17.8461Z" fill="#B9B9B9"/>
<path d="M118.882 65.5822C118.653 65.3946 118.473 65.1617 118.353 64.9004C118.232 64.6392 118.176 64.3562 118.187 64.072C118.312 60.6947 117.718 57.3278 116.439 54.1675C116.331 53.9019 116.287 53.6169 116.311 53.3334C116.335 53.0499 116.426 52.775 116.578 52.5286C116.723 52.2918 116.922 52.0876 117.161 51.9305C117.399 51.7733 117.672 51.667 117.959 51.6189C120.846 49.9879 123.806 49.5301 126.758 50.2583C127.234 50.1927 127.72 50.2881 128.127 50.5273C128.535 50.7665 128.838 51.134 128.982 51.5636C130.178 55.1956 130.842 58.9623 130.959 62.7611C130.97 63.2168 130.805 63.661 130.494 64.0121C130.184 64.3632 129.748 64.5976 129.268 64.6722L120.532 66.0232C120.239 66.069 119.939 66.0532 119.654 65.977C119.368 65.9007 119.105 65.7658 118.882 65.5822Z" fill="#1DBF73"/>
<path d="M119.658 55.7419L127.01 54.6048C127.071 54.5956 127.129 54.5754 127.181 54.5452C127.233 54.515 127.278 54.4754 127.314 54.4289C127.349 54.3823 127.375 54.3296 127.389 54.2737C127.403 54.2179 127.405 54.16 127.395 54.1035C127.385 54.0469 127.363 53.9927 127.331 53.9441C127.298 53.8954 127.256 53.8532 127.206 53.8198C127.156 53.7865 127.1 53.7627 127.04 53.7498C126.981 53.7368 126.919 53.7351 126.858 53.7446L119.506 54.8816C119.384 54.9007 119.276 54.9641 119.204 55.0581C119.132 55.152 119.103 55.2687 119.123 55.3826C119.144 55.4965 119.211 55.5984 119.311 55.6657C119.411 55.733 119.536 55.7604 119.658 55.7419Z" fill="white"/>
<path d="M120.261 59.1831L127.614 58.0461C127.736 58.0272 127.845 57.9638 127.917 57.8698C127.988 57.7758 128.018 57.6589 127.997 57.5449C127.977 57.4308 127.91 57.3288 127.809 57.2615C127.709 57.1942 127.584 57.1669 127.462 57.1858L120.11 58.3228C120.049 58.332 119.991 58.3523 119.939 58.3825C119.887 58.4127 119.842 58.4522 119.806 58.4988C119.77 58.5454 119.745 58.5981 119.731 58.6539C119.717 58.7098 119.715 58.7676 119.725 58.8242C119.735 58.8808 119.757 58.9349 119.789 58.9836C119.822 59.0323 119.864 59.0745 119.914 59.1078C119.964 59.1412 120.02 59.165 120.08 59.1779C120.139 59.1908 120.201 59.1926 120.261 59.1831Z" fill="white"/>
<path d="M120.87 62.6243L128.222 61.4873C128.344 61.4684 128.453 61.405 128.525 61.311C128.597 61.2171 128.626 61.1001 128.606 60.9861C128.586 60.872 128.518 60.7701 128.417 60.7027C128.317 60.6354 128.192 60.6081 128.07 60.627L120.718 61.764C120.658 61.7734 120.6 61.7937 120.548 61.824C120.496 61.8542 120.451 61.8937 120.415 61.9403C120.38 61.9868 120.354 62.0395 120.34 62.0952C120.326 62.151 120.324 62.2087 120.334 62.2652C120.344 62.3217 120.366 62.3758 120.398 62.4244C120.431 62.4731 120.473 62.5152 120.523 62.5486C120.572 62.5819 120.629 62.6058 120.688 62.6188C120.748 62.6318 120.809 62.6337 120.87 62.6243Z" fill="white"/>
</g>
<defs>
<clipPath id="clip0_125_6762">
<rect width="227" height="183" fill="white"/>
</clipPath>
</defs>
</svg>
