<svg width="224" height="127" viewBox="0 0 224 127" fill="none" xmlns="http://www.w3.org/2000/svg">
<g clip-path="url(#clip0_125_7214)">
<path d="M187.463 104.11H36.5336C33.3058 104.11 30.6797 101.685 30.6797 98.7031V81.9248H193.317V98.7031C193.317 101.685 190.691 104.11 187.463 104.11Z" fill="#E6E6E6"/>
<path d="M131.536 101.303H93.0469V126.696H131.536V101.303Z" fill="#E6E6E6"/>
<path d="M133.846 123.489H90.7266V126.696H133.846V123.489Z" fill="#E6E6E6"/>
<path d="M193.173 89.008H30.6797V3.7105C30.6797 1.66457 32.4819 0 34.697 0H189.155C191.371 0 193.173 1.66457 193.173 3.7105V89.008Z" fill="#444444"/>
<path d="M112.29 3.07385C112.93 3.07385 113.448 2.59517 113.448 2.00468C113.448 1.4142 112.93 0.935516 112.29 0.935516C111.651 0.935516 111.133 1.4142 111.133 2.00468C111.133 2.59517 111.651 3.07385 112.29 3.07385Z" fill="white"/>
<path d="M189.269 3.87573H34.4453V84.3304H189.269V3.87573Z" fill="white"/>
<path d="M171.146 64.6606C178.436 64.6606 184.346 59.2019 184.346 52.4683C184.346 45.7347 178.436 40.2761 171.146 40.2761C163.855 40.2761 157.945 45.7347 157.945 52.4683C157.945 59.2019 163.855 64.6606 171.146 64.6606Z" fill="#1DBF73"/>
<path d="M224 126.775C224 126.899 223.891 127 223.757 127H0V126.551H223.757C223.891 126.551 224 126.651 224 126.775Z" fill="#E6E6E6"/>
<path d="M37.8945 50.6952L36.2266 56.0872L42.8983 56.4723L42.4813 50.1175L37.8945 50.6952Z" fill="#FFB6B6"/>
<path d="M65.6221 72.7061C67.2053 73.2053 68.7675 72.8554 69.1113 71.9248C69.4552 70.9941 68.4504 69.8352 66.8666 69.336C66.2369 69.1286 65.5625 69.0634 64.9 69.1461L58.1629 67.1091L57.1953 70.0495L63.9396 71.7455C64.4093 72.1852 64.9863 72.5146 65.6221 72.7061Z" fill="#FFB6B6"/>
<path d="M43.2625 54.8914C43.2625 54.8914 39.0863 59.5319 41.5023 61.4519C43.9183 63.3719 54.7076 70.4796 54.7076 70.4796L58.9137 71.0845L59.9895 67.3292L50.4918 60.8288L43.2625 54.8914Z" fill="#1DBF73"/>
<path d="M54.3281 104.292L56.6491 112.236L60.3352 111.606L59.5161 103.409L54.3281 104.292Z" fill="#FFB6B6"/>
<path d="M57.1918 111.732L55.8266 111.984L54.7344 115.389C54.7344 115.389 56.5092 116.019 56.5092 117.28C56.5092 118.541 57.1918 119.424 59.9223 119.298C62.6528 119.172 62.9259 119.298 62.9259 118.289C62.9259 117.28 60.878 111.984 60.878 111.984C60.878 111.984 61.0145 109.84 59.3762 109.966C57.7379 110.092 57.1918 111.732 57.1918 111.732Z" fill="#1F1F1F"/>
<path d="M41.8438 104.168L42.0021 112.395L45.7436 112.612L47.1083 104.478L41.8438 104.168Z" fill="#FFB6B6"/>
<path d="M42.6673 112.029L41.2766 111.967L39.3203 115.024C39.3203 115.024 40.8757 116.034 40.5435 117.257C40.2113 118.48 40.6409 119.49 43.3226 119.981C46.0042 120.472 46.2358 120.656 46.5016 119.678C46.7674 118.699 46.1762 113.102 46.1762 113.102C46.1762 113.102 46.8734 111.053 45.2511 110.807C43.6288 110.562 42.6673 112.029 42.6673 112.029Z" fill="#1F1F1F"/>
<path d="M43.4011 54.987L36.0288 54.4826L34.3905 56.3741C34.3905 56.3741 33.5713 69.1101 34.1174 70.3711C34.6635 71.6321 34.2539 78.8198 34.2539 78.8198L52.8391 77.6218L48.7256 68.4796L48.8621 63.1835L45.1759 56.7524L43.4011 54.987Z" fill="#1DBF73"/>
<path d="M35.0723 76.1717C35.0723 76.1717 32.0688 80.2069 33.161 82.3506C34.2532 84.4943 41.6617 96.9412 41.6617 96.9412L40.706 108.542L47.2592 108.038L48.3514 95.5541L43.81 85.3769L44.6291 84.2421L51.4554 91.9341L53.9128 105.301L60.466 104.544L56.9164 84.9986L52.7679 77.4653L35.0723 76.1717Z" fill="#1F1F1F"/>
<path d="M34.4296 47.2647C35.8275 47.2647 36.9607 46.218 36.9607 44.9269C36.9607 43.6357 35.8275 42.5891 34.4296 42.5891C33.0317 42.5891 31.8984 43.6357 31.8984 44.9269C31.8984 46.218 33.0317 47.2647 34.4296 47.2647Z" fill="#1F1F1F"/>
<path d="M40.2778 53.5938C43.3221 53.5938 45.79 51.3144 45.79 48.5026C45.79 45.6907 43.3221 43.4113 40.2778 43.4113C37.2335 43.4113 34.7656 45.6907 34.7656 48.5026C34.7656 51.3144 37.2335 53.5938 40.2778 53.5938Z" fill="#FFB6B6"/>
<path d="M38.5278 54.0842C37.9419 54.3708 36.2934 53.3184 35.7036 51.9083C35.3242 51.0011 34.4016 51.152 33.813 50.0207C33.47 49.3615 34.4942 48.7166 34.3253 48.1466C34.0192 47.1139 34.403 46.19 34.4519 46.0768C34.8739 45.0997 35.4961 45.1224 35.9978 43.9851C36.2999 43.3004 36.1061 43.2202 36.36 42.8699C37.0928 41.859 39.2188 41.8205 40.7183 42.2986C41.2372 42.464 42.4871 41.5775 43.5017 42.2197C44.6971 42.9764 45.4924 45.1573 45.3094 45.5569C45.1983 45.7998 44.5794 45.5524 43.2922 45.7392C42.1005 45.9122 43.6734 46.7346 42.3323 47.0149C40.7464 47.3464 40.2687 47.0439 39.8292 47.5073C39.3646 47.9972 39.2787 48.9887 39.7026 49.5772C39.913 49.8692 40.1842 49.9723 40.1502 50.1756C40.0882 50.5466 39.7313 50.3449 39.6143 50.7386C39.4782 51.1965 40.6078 51.7969 40.5096 51.9354C40.4898 51.9633 40.4052 51.9935 39.3022 51.6008C38.8617 51.4441 38.6919 51.3087 38.6425 51.3588C38.5625 51.4399 38.1665 52.2529 38.6165 52.5987C39.3168 53.1369 38.8314 53.3506 39.1506 53.772C39.48 54.2068 38.9001 53.902 38.5278 54.0842Z" fill="#1F1F1F"/>
<path d="M39.8233 83.5006C40.703 84.8149 42.1503 85.4611 43.0558 84.9438C43.9613 84.4266 43.982 82.9421 43.1018 81.6274C42.758 81.0978 42.2819 80.6519 41.7133 80.3271L37.9098 74.8018L35.1406 76.5056L39.1842 81.7717C39.2447 82.3869 39.4638 82.9798 39.8233 83.5006Z" fill="#FFB6B6"/>
<path d="M34.802 56.6263C34.802 56.6263 28.3853 57.7612 28.9314 60.6615C29.4775 63.5617 32.9246 75.3808 32.9246 75.3808L35.7577 78.3154L39.1708 76.0456L36.3038 65.4532L34.802 56.6263Z" fill="#1DBF73"/>
<path d="M186.361 59.0483C186.109 58.6553 185.017 59.0761 184.816 58.7195C184.617 58.3641 185.631 57.8226 186.21 56.5857C186.315 56.3626 186.973 54.9569 186.486 54.5232C185.562 53.701 181.333 57.0939 179.854 55.9836C179.529 55.7399 179.302 55.2535 178.319 54.4637C177.928 54.1495 177.692 54.0077 177.463 54.0604C177.138 54.1353 177.112 54.5367 176.764 55.3258C176.242 56.5093 175.933 56.4379 175.629 57.3821C175.403 58.083 175.455 58.4906 175.189 58.5699C174.813 58.6823 174.467 57.9388 173.99 58.0054C173.504 58.0733 173.21 58.939 173.117 59.5871C172.943 60.8034 173.427 61.606 173.695 62.4499C173.986 63.367 174.159 64.7618 173.486 66.7362L166.828 84.0625C168.298 80.5072 172.554 70.7612 174.342 67.1395C174.859 66.094 175.429 65.0335 176.599 64.615C177.726 64.212 179.274 64.4526 181.247 64.0136C181.477 63.9623 182.116 63.812 182.197 63.4647C182.263 63.1775 181.887 63.0172 181.945 62.7482C182.023 62.3874 182.762 62.383 183.671 61.9667C184.312 61.6732 184.711 61.3241 185.055 61.0239C185.158 60.9334 186.697 59.5715 186.361 59.0483Z" fill="#E6E6E6"/>
<path d="M160.164 68.1696C159.882 68.1706 159.791 68.7869 159.544 68.7749C159.297 68.7631 159.302 68.147 158.812 67.5275C158.723 67.4157 158.166 66.7116 157.795 66.8075C157.092 66.9891 157.675 69.8849 156.658 70.2353C156.435 70.3123 156.111 70.2748 155.407 70.4924C155.128 70.579 154.984 70.6453 154.946 70.7642C154.892 70.933 155.098 71.0605 155.417 71.446C155.895 72.0242 155.768 72.1436 156.182 72.5539C156.489 72.8585 156.721 72.9527 156.686 73.0961C156.637 73.299 156.143 73.2414 156.04 73.4766C155.936 73.7167 156.311 74.0997 156.629 74.3289C157.225 74.7588 157.791 74.7711 158.317 74.8931C158.888 75.0257 159.679 75.3498 160.534 76.2244L167.82 84.2418C166.355 82.5497 162.404 77.8083 160.996 75.9526C160.589 75.4169 160.19 74.8525 160.305 74.2011C160.416 73.574 160.991 72.9419 161.327 71.9208C161.366 71.8015 161.471 71.4683 161.309 71.3316C161.176 71.2186 160.982 71.3428 160.856 71.239C160.686 71.0998 160.898 70.7632 160.939 70.231C160.968 69.8558 160.897 69.5741 160.837 69.3318C160.819 69.2588 160.539 68.1683 160.164 68.1696Z" fill="#E6E6E6"/>
<path d="M165.779 69.3345L165.609 67.9355L165.687 67.8294C166.046 67.339 166.228 66.86 166.231 66.4054C166.231 66.3331 166.227 66.2608 166.224 66.1872C166.209 65.8953 166.191 65.5326 166.396 65.1097C166.51 64.8739 166.833 64.3281 167.318 64.3956C167.448 64.4125 167.547 64.4679 167.622 64.5328C167.633 64.5166 167.644 64.5003 167.657 64.4828C167.808 64.27 167.927 64.1788 168.042 64.091C168.131 64.0234 168.222 63.9538 168.366 63.789C168.429 63.7167 168.478 63.6532 168.519 63.5999C168.644 63.4384 168.808 63.2459 169.097 63.2493C169.406 63.2628 169.567 63.4985 169.674 63.6546C169.866 63.9329 169.952 64.1335 170.01 64.2666C170.031 64.3153 170.054 64.37 170.066 64.3869C170.166 64.522 170.975 64.3956 171.279 64.3497C171.963 64.2443 172.555 64.1531 172.799 64.5517C172.974 64.8368 172.844 65.2137 172.402 65.7021C172.264 65.8541 172.117 65.9696 171.987 66.0602C172.095 66.1196 172.192 66.2108 172.231 66.354C172.323 66.6932 172.007 67.033 171.293 67.3653C171.116 67.4484 170.877 67.5592 170.542 67.6126C170.385 67.6376 170.243 67.6437 170.121 67.647C170.119 67.7119 170.102 67.7821 170.06 67.8544C169.934 68.0672 169.673 68.1685 169.28 68.1442C168.847 68.1233 168.49 68.0469 168.175 67.9801C167.901 67.922 167.664 67.8727 167.478 67.8841C167.134 67.9098 166.868 68.1645 166.557 68.4948L165.779 69.3345Z" fill="#E6E6E6"/>
<path d="M166.57 61.0046L165.148 61.5111L165.017 61.4687C164.413 61.2726 163.865 61.2307 163.388 61.3441C163.312 61.3621 163.238 61.3837 163.161 61.4057C162.86 61.4927 162.484 61.6011 161.989 61.5254C161.713 61.4826 161.06 61.3329 161.008 60.8825C160.992 60.7616 161.025 60.6593 161.074 60.5759C161.054 60.5702 161.034 60.5642 161.013 60.5579C160.752 60.4769 160.626 60.3932 160.505 60.3126C160.412 60.2506 160.316 60.1866 160.107 60.1003C160.015 60.0625 159.936 60.0348 159.87 60.0114C159.669 59.9403 159.426 59.8428 159.356 59.5838C159.292 59.3046 159.498 59.1004 159.634 58.9651C159.877 58.7236 160.065 58.5953 160.19 58.5102C160.235 58.4793 160.287 58.4441 160.301 58.4291C160.418 58.3059 160.08 57.6156 159.955 57.3551C159.671 56.7705 159.425 56.2647 159.781 55.9457C160.035 55.7172 160.463 55.7376 161.086 56.009C161.281 56.0936 161.439 56.1953 161.567 56.2887C161.601 56.1772 161.672 56.0679 161.813 55.9966C162.144 55.8282 162.58 56.024 163.109 56.5778C163.241 56.7152 163.418 56.9004 163.559 57.1858C163.625 57.3203 163.667 57.4455 163.702 57.5531C163.77 57.539 163.848 57.5359 163.935 57.5557C164.189 57.6138 164.362 57.8214 164.436 58.1791C164.524 58.5713 164.534 58.9092 164.544 59.2072C164.553 59.4673 164.561 59.6912 164.62 59.8542C164.735 60.1555 165.069 60.3281 165.494 60.5227L166.57 61.0046Z" fill="#E6E6E6"/>
<path d="M165.779 56.883L165.609 55.4839L165.687 55.3779C166.046 54.8874 166.228 54.4085 166.231 53.9538C166.231 53.8815 166.227 53.8092 166.224 53.7356C166.209 53.4438 166.191 53.081 166.396 52.6581C166.51 52.4224 166.833 51.8765 167.318 51.9441C167.448 51.961 167.547 52.0164 167.622 52.0812C167.633 52.065 167.644 52.0488 167.657 52.0312C167.808 51.8184 167.927 51.7272 168.042 51.6394C168.131 51.5719 168.222 51.5023 168.366 51.3374C168.429 51.2652 168.478 51.2017 168.519 51.1483C168.644 50.9868 168.808 50.7943 169.097 50.7977C169.406 50.8112 169.567 51.047 169.674 51.203C169.866 51.4813 169.952 51.682 170.01 51.815C170.031 51.8637 170.054 51.9184 170.066 51.9353C170.166 52.0704 170.975 51.9441 171.279 51.8981C171.963 51.7927 172.555 51.7016 172.799 52.1001C172.974 52.3852 172.844 52.7621 172.402 53.2506C172.264 53.4026 172.117 53.5181 171.987 53.6086C172.095 53.6681 172.192 53.7592 172.231 53.9025C172.323 54.2416 172.007 54.5814 171.293 54.9138C171.116 54.9968 170.877 55.1076 170.542 55.161C170.385 55.186 170.243 55.1921 170.121 55.1955C170.119 55.2603 170.102 55.3306 170.06 55.4029C169.934 55.6157 169.673 55.717 169.28 55.6927C168.847 55.6717 168.49 55.5954 168.175 55.5285C167.901 55.4704 167.664 55.4211 167.478 55.4326C167.134 55.4582 166.868 55.7129 166.557 56.0433L165.779 56.883Z" fill="#E6E6E6"/>
<path d="M167.335 84.0397L167.018 83.8559L166.648 83.8951C166.642 83.8634 166.622 83.7904 166.591 83.6762C166.426 83.0507 165.921 81.147 165.499 78.149C165.205 76.0562 165.039 73.9046 165.005 71.753C164.97 69.598 165.081 67.9666 165.169 66.6553C165.236 65.6663 165.317 64.7246 165.397 63.8073C165.609 61.3564 165.809 59.0413 165.66 56.4783C165.627 55.9061 165.558 54.7151 164.805 53.4478C164.368 52.7128 163.766 52.0603 163.016 51.509L163.482 50.9673C164.311 51.5766 164.976 52.2994 165.462 53.1155C166.297 54.5206 166.372 55.8183 166.409 56.4418C166.56 59.0501 166.358 61.3875 166.143 63.862C166.064 64.776 165.983 65.7136 165.917 66.6986C165.829 67.9976 165.72 69.6149 165.754 71.7422C165.787 73.8681 165.952 75.9933 166.242 78.0598C166.658 81.02 167.156 82.8953 167.319 83.5114C167.406 83.8404 167.424 83.9093 167.335 84.0397Z" fill="#E6E6E6"/>
<path d="M161.643 52.6082C161.612 52.6082 161.581 52.6075 161.549 52.6055C160.912 52.5737 160.321 52.2211 159.794 51.5577C159.547 51.2456 159.42 50.8896 159.168 50.1796C159.129 50.0701 158.938 49.5149 158.823 48.7508C158.747 48.2516 158.757 48.0429 158.864 47.8584C158.983 47.6531 159.175 47.5099 159.391 47.4133C159.382 47.347 159.39 47.2788 159.421 47.2092C159.548 46.9208 159.888 46.9586 160.071 46.9768C160.164 46.9877 160.28 47.0018 160.405 46.9958C160.602 46.987 160.708 46.9329 160.868 46.8519C161.021 46.7742 161.212 46.6776 161.494 46.6242C162.052 46.5168 162.519 46.6627 162.673 46.7107C163.483 46.96 163.882 47.5416 164.344 48.2151C164.436 48.3502 164.753 48.842 164.961 49.5162C165.112 50.0026 165.091 50.2188 165.046 50.3795C164.953 50.7099 164.736 50.899 164.183 51.3165C163.606 51.7536 163.317 51.9725 163.068 52.1055C162.489 52.4143 162.125 52.6082 161.643 52.6082Z" fill="#E6E6E6"/>
<path d="M128.603 71.8219H69.8372C67.4715 71.8219 65.5469 70.0441 65.5469 67.8592V26.8161C65.5469 24.6312 67.4715 22.8534 69.8372 22.8534H128.603C130.968 22.8534 132.893 24.6312 132.893 26.8161V67.8592C132.893 70.0441 130.968 71.8219 128.603 71.8219Z" fill="white"/>
<path d="M128.603 71.8219H69.8372C67.4715 71.8219 65.5469 70.0441 65.5469 67.8592V26.8161C65.5469 24.6312 67.4715 22.8534 69.8372 22.8534H128.603C130.968 22.8534 132.893 24.6312 132.893 26.8161V67.8592C132.893 70.0441 130.968 71.8219 128.603 71.8219ZM69.8372 23.5151C67.8666 23.5151 66.2633 24.996 66.2633 26.8161V67.8592C66.2633 69.6793 67.8666 71.1602 69.8372 71.1602H128.603C130.573 71.1602 132.177 69.6793 132.177 67.8592V26.8161C132.177 24.996 130.573 23.5151 128.603 23.5151H69.8372Z" fill="#444444"/>
<path d="M122.145 27.8164C122.739 27.8164 123.22 27.372 123.22 26.8238C123.22 26.2756 122.739 25.8312 122.145 25.8312C121.551 25.8312 121.07 26.2756 121.07 26.8238C121.07 27.372 121.551 27.8164 122.145 27.8164Z" fill="#444444"/>
<path d="M125.012 27.8164C125.606 27.8164 126.087 27.372 126.087 26.8238C126.087 26.2756 125.606 25.8312 125.012 25.8312C124.419 25.8312 123.938 26.2756 123.938 26.8238C123.938 27.372 124.419 27.8164 125.012 27.8164Z" fill="#444444"/>
<path d="M127.879 27.8164C128.473 27.8164 128.954 27.372 128.954 26.8238C128.954 26.2756 128.473 25.8312 127.879 25.8312C127.286 25.8312 126.805 26.2756 126.805 26.8238C126.805 27.372 127.286 27.8164 127.879 27.8164Z" fill="#444444"/>
<path d="M71.6389 42.8709C71.3426 42.8709 71.1016 43.0935 71.1016 43.3672C71.1016 43.5007 71.1574 43.6241 71.2586 43.7152C71.3608 43.8118 71.4946 43.8635 71.6389 43.8635H127.164C127.46 43.8635 127.701 43.6409 127.701 43.3672C127.701 43.2338 127.645 43.1103 127.544 43.0192C127.442 42.9226 127.308 42.8709 127.164 42.8709H71.6389Z" fill="#E6E6E6"/>
<path d="M117.133 42.7055V44.0289H71.6383C71.4413 44.0289 71.2622 43.9561 71.1332 43.8337C71.0007 43.7146 70.9219 43.5492 70.9219 43.3672C70.9219 43.0032 71.2443 42.7055 71.6383 42.7055H117.133Z" fill="#1DBF73"/>
<path d="M126.269 40.224H119.105C118.315 40.224 117.672 39.6304 117.672 38.9005C117.672 38.1706 118.315 37.577 119.105 37.577H126.269C127.059 37.577 127.702 38.1706 127.702 38.9005C127.702 39.6304 127.059 40.224 126.269 40.224Z" fill="#E6E6E6"/>
<path d="M79.3396 33.2757H72.1751C71.385 33.2757 70.7422 32.6822 70.7422 31.9523C70.7422 31.2223 71.385 30.6288 72.1751 30.6288H79.3396C80.1297 30.6288 80.7725 31.2223 80.7725 31.9523C80.7725 32.6822 80.1297 33.2757 79.3396 33.2757Z" fill="#E6E6E6"/>
<path d="M71.6389 57.76C71.3426 57.76 71.1016 57.9826 71.1016 58.2563C71.1016 58.3897 71.1574 58.5132 71.2586 58.6043C71.3608 58.7009 71.4946 58.7526 71.6389 58.7526H127.164C127.46 58.7526 127.701 58.53 127.701 58.2563C127.701 58.1228 127.645 57.9994 127.544 57.9083C127.442 57.8117 127.308 57.76 127.164 57.76H71.6389Z" fill="#E6E6E6"/>
<path d="M89.5495 57.5945V58.918H71.6383C71.4413 58.918 71.2622 58.8452 71.1332 58.7228C71.0007 58.6037 70.9219 58.4383 70.9219 58.2563C70.9219 57.8923 71.2443 57.5945 71.6383 57.5945H89.5495Z" fill="#1DBF73"/>
<path d="M126.269 55.113H119.105C118.315 55.113 117.672 54.5195 117.672 53.7896C117.672 53.0597 118.315 52.4661 119.105 52.4661H126.269C127.059 52.4661 127.702 53.0597 127.702 53.7896C127.702 54.5195 127.059 55.113 126.269 55.113Z" fill="#E6E6E6"/>
</g>
<defs>
<clipPath id="clip0_125_7214">
<rect width="224" height="127" fill="white"/>
</clipPath>
</defs>
</svg>
